<svg width="120" height="206" viewBox="0 0 120 206" fill="none" xmlns="http://www.w3.org/2000/svg">
<rect width="120" height="205.714" fill="white"/>
<g filter="url(#filter0_i_5_130)">
<path d="M53.0205 37.6634L49.6021 34.245L39.347 30.8266H35.9286L29.0919 34.245L25.6735 37.6634V41.0817V44.5001V51.3368L22.2551 54.7552L18.8367 61.5918L15.4184 71.8472L12 78.6838V88.9389V99.194V109.449L15.4184 119.704L18.8367 129.959L22.2551 136.796L25.6735 140.215L32.5102 147.051V150.47L35.9286 157.306H42.7652L46.1837 160.725L49.6021 167.562H53.0205L56.4387 170.98L66.6938 174.398L70.1122 177.817L76.9491 181.235L80.3673 184.653L87.2042 181.235L90.6224 174.398V167.562L94.0408 160.725L97.4593 153.888L100.878 143.633L104.296 133.378L107.714 123.123V116.286V102.612V95.7758L104.296 85.5204L100.878 75.2654L94.0408 68.4287V65.0103L90.6224 61.5918L83.7857 58.1736L80.3673 51.3368L73.5307 47.9186L70.1122 44.5001L63.2756 41.0817H59.8572L53.0205 37.6634Z" fill="#F4CE14" stroke="black" stroke-width="1.5"/>
<path d="M31.1432 34.245L34.5617 30.8266H44.8168L48.2352 34.245L51.6534 37.6634H55.0718L58.4903 44.5001L61.9085 47.9185L65.3269 54.7552V58.1736V61.5918V68.4287V75.2653V78.6837H58.4903L55.0718 75.2653H51.6534L48.2352 71.8471L41.3983 68.4287L37.9799 65.0102L34.5617 61.5918L31.1432 54.7552V44.5001V41.0817V34.245Z" fill="#495E57" stroke="black" stroke-opacity="0.83"/>
<path d="M42.7652 41.0817L39.3468 37.6633V44.5001L42.7652 47.9185V51.3367L46.1834 54.7551V58.1736L49.6018 61.592L53.0203 65.0102V68.4286L56.4385 71.8471H59.8569V68.4286V65.0102L56.4385 61.592V58.1736H53.0203V51.3367H49.6018V47.9185L46.1834 44.5001V41.0817H42.7652Z" fill="#F4CE14" stroke="black" stroke-opacity="0.77"/>
<path d="M42.7652 27.4082L39.3468 30.8265L49.6018 34.2449L53.0203 37.6633L63.2753 41.0816H70.112H76.9488H80.367L83.7855 37.6633H87.2039V34.2449H90.6223V30.8265V27.4082L87.2039 23.9898H80.367H76.9488L73.5304 20.5714H59.8569H56.4385L53.0203 23.9898H49.6018L46.1834 27.4082H42.7652Z" fill="#495E57" stroke="black" stroke-opacity="0.83"/>
<path d="M49.6021 27.4081C49.6021 27.4081 46.1837 27.4081 42.7653 30.8265C39.3471 34.2449 59.8572 34.2449 59.8572 34.2449H63.2756H70.1123C70.1123 34.2449 83.7858 34.2449 80.3673 30.8265L76.9492 27.4081H63.2756H49.6021Z" fill="#F4CE14" stroke="black" stroke-opacity="0.83"/>
</g>
<defs>
<filter id="filter0_i_5_130" x="11.25" y="20.0714" width="97.2143" height="169.494" filterUnits="userSpaceOnUse" color-interpolation-filters="sRGB">
<feFlood flood-opacity="0" result="BackgroundImageFix"/>
<feBlend mode="normal" in="SourceGraphic" in2="BackgroundImageFix" result="shape"/>
<feColorMatrix in="SourceAlpha" type="matrix" values="0 0 0 0 0 0 0 0 0 0 0 0 0 0 0 0 0 0 127 0" result="hardAlpha"/>
<feOffset dy="4"/>
<feGaussianBlur stdDeviation="2"/>
<feComposite in2="hardAlpha" operator="arithmetic" k2="-1" k3="1"/>
<feColorMatrix type="matrix" values="0 0 0 0 0 0 0 0 0 0 0 0 0 0 0 0 0 0 0.25 0"/>
<feBlend mode="normal" in2="shape" result="effect1_innerShadow_5_130"/>
</filter>
</defs>
</svg>
