<svg width="219" height="117" fill="none" xmlns="http://www.w3.org/2000/svg"><g filter="url(#filter0_d_7_30)"><path d="M16 117h75.963l22.605-16.394-54.352-.586-15.905-1.122L55.292 63.44l17.644-46.28L75.293 13 37.65 15.08l-6.154 33.28-6.155 30.452L16 117z" fill="#A60000"/></g><g filter="url(#filter1_i_7_30)" fill="#A60000"><path d="M75.725 54.838L50.858 102.78 91.87 87.043l1.31-.355 14.401-33.835-31.856 1.985zm14.534-17.843l-8.704 11.1 30.258-.203 7.855-11.067 3.928-.023-33.337.193z"/><path fill-rule="evenodd" clip-rule="evenodd" d="M118.786 40.03c1.629-9.637 70.04-11.64 77.502-1.534 3.625 4.908 4.039 8.688-3.73 12.933-14.123 7.716-62.168 1.784-62.168 1.784 7.902 20.693-3.73 38.353-3.73 38.353l-39.788 12.932 6.985-8.509 15.396-27.288 9.533-28.67s44.847 15.822 58.852 9.565l6.217-9.762c-3.149-6.974-32.839-4.34-53.465-2.024-4.502.505-7.025 2.54-11.604 2.22z"/><path d="M148.463 39.258c-3.299.949-5.974 1.572-7.231 3.925-2.31 4.325 10.161.78 16.671 1.28l16.671 1.279s-4.285-2.617-7.46-3.808c-6.564-2.461-11.767-4.654-18.651-2.676zm38.103 51.512l4.568 1.31.571.436-5.139-1.746z"/><path d="M197.679 106.868L219 64.651h-21.442l-10.992 26.12 5.139 1.745 8.235-20.138h9.895l-14.856 29.83-6.129-4.017-14.276 11.037 23.105-2.36z"/><path fill-rule="evenodd" clip-rule="evenodd" d="M160.411 82.159l27.024-.759 3.22-7.26s1.766-4.834 2.017-5.383c3.123-6.839-10.011-7.276-10.011-7.276s-14.352-1.19-15.419-1.309c-1.33-.15-24.555-1.746-24.555-1.746s-.103-.943-1.713 7.465c-.552 2.882-3.919 16.29-4.568 19.16l-6.016 21.817s5.846 1.784 7.556 2.336c1.339.231 8.755 1.835 8.755 1.835s1.797-17.539 2.455-25.095l2.551.228 22.867 23.056 14.276-11.037 2.855-5.675-5.139-1.746L178 88.152l-17.589-5.993zm-7.016-16.545s7.625.141 12.613.277c2.613.07 6.374.392 6.374.392s4.067.227 6.281 1.746c2.215 1.518 1.344 8.082-2.468 9.616-3.813 1.533-28.036 0-28.036 0s1.569-3.443 2.523-5.688c1.053-2.476 2.713-6.343 2.713-6.343z"/></g><defs><filter id="filter0_d_7_30" x="0" y="0" width="114.568" height="117" filterUnits="userSpaceOnUse" color-interpolation-filters="sRGB"><feFlood flood-opacity="0" result="BackgroundImageFix"/><feColorMatrix in="SourceAlpha" values="0 0 0 0 0 0 0 0 0 0 0 0 0 0 0 0 0 0 127 0" result="hardAlpha"/><feOffset dx="-14" dy="-11"/><feGaussianBlur stdDeviation="1"/><feComposite in2="hardAlpha" operator="out"/><feColorMatrix values="0 0 0 0 1 0 0 0 0 1 0 0 0 0 1 0 0 0 1 0"/><feBlend in2="BackgroundImageFix" result="effect1_dropShadow_7_30"/><feBlend in="SourceGraphic" in2="effect1_dropShadow_7_30" result="shape"/></filter><filter id="filter1_i_7_30" x="50.858" y="31.801" width="168.142" height="79.238" filterUnits="userSpaceOnUse" color-interpolation-filters="sRGB"><feFlood flood-opacity="0" result="BackgroundImageFix"/><feBlend in="SourceGraphic" in2="BackgroundImageFix" result="shape"/><feColorMatrix in="SourceAlpha" values="0 0 0 0 0 0 0 0 0 0 0 0 0 0 0 0 0 0 127 0" result="hardAlpha"/><feOffset/><feGaussianBlur stdDeviation="1"/><feComposite in2="hardAlpha" operator="arithmetic" k2="-1" k3="1"/><feColorMatrix values="0 0 0 0 0.99675 0 0 0 0 1 0 0 0 0 0.8375 0 0 0 1 0"/><feBlend in2="shape" result="effect1_innerShadow_7_30"/></filter></defs></svg>