<svg width="42" height="71" viewBox="0 0 42 71" fill="none" xmlns="http://www.w3.org/2000/svg">
<g filter="url(#filter0_i_14_244)">
<path d="M18.1429 8.14285L16.7143 6.71428L12.4286 5.28571H11L8.14286 6.71428L6.71429 8.14285V9.57142V11V13.8571L5.28571 15.2857L3.85714 18.1428L2.42857 22.4286L1 25.2857V29.5714V33.8571V38.1428L2.42857 42.4286L3.85714 46.7143L5.28571 49.5714L6.71429 51L9.57143 53.8571V55.2857L11 58.1428H13.8571L15.2857 59.5714L16.7143 62.4286H18.1429L19.5714 63.8571L23.8571 65.2857L25.2857 66.7143L28.1429 68.1428L29.5714 69.5714L32.4286 68.1428L33.8571 65.2857V62.4286L35.2857 59.5714L36.7143 56.7143L38.1429 52.4286L39.5714 48.1428L41 43.8571V41V35.2857V32.4286L39.5714 28.1428L38.1429 23.8571L35.2857 21V19.5714L33.8571 18.1428L31 16.7143L29.5714 13.8571L26.7143 12.4286L25.2857 11L22.4286 9.57142H21L18.1429 8.14285Z" fill="#F4CE14" stroke="black" stroke-width="1.5"/>
<path d="M9 6.71428L10.4286 5.28571H14.7143L16.1429 6.71428L17.5714 8.14285H19L20.4286 11L21.8571 12.4286L23.2857 15.2857V16.7143V18.1428V21V23.8571V25.2857H20.4286L19 23.8571H17.5714L16.1429 22.4286L13.2857 21L11.8571 19.5714L10.4286 18.1428L9 15.2857V11V9.57142V6.71428Z" fill="#495E57" stroke="black" stroke-opacity="0.83"/>
<path d="M13.8572 9.57142L12.4286 8.14285V11L13.8572 12.4286V13.8571L15.2857 15.2857V16.7143L16.7143 18.1429L18.1429 19.5714V21L19.5714 22.4286H21V21V19.5714L19.5714 18.1429V16.7143H18.1429V13.8571H16.7143V12.4286L15.2857 11V9.57142H13.8572Z" fill="#F4CE14" stroke="black" stroke-opacity="0.77"/>
<path d="M13.8572 3.85714L12.4286 5.28571L16.7143 6.71429L18.1429 8.14286L22.4286 9.57143H25.2857H28.1429H29.5714L31 8.14286H32.4286V6.71429H33.8572V5.28571V3.85714L32.4286 2.42857H29.5714H28.1429L26.7143 1H21H19.5714L18.1429 2.42857H16.7143L15.2857 3.85714H13.8572Z" fill="#495E57" stroke="black" stroke-opacity="0.83"/>
<path d="M16.7143 3.85715C16.7143 3.85715 15.2857 3.85715 13.8571 5.28572C12.4286 6.71429 21 6.71429 21 6.71429H22.4286H25.2857C25.2857 6.71429 31 6.71429 29.5714 5.28572L28.1429 3.85715H22.4286H16.7143Z" fill="#F4CE14" stroke="black" stroke-opacity="0.83"/>
</g>
<defs>
<filter id="filter0_i_14_244" x="0.25" y="0.5" width="41.5" height="73.984" filterUnits="userSpaceOnUse" color-interpolation-filters="sRGB">
<feFlood flood-opacity="0" result="BackgroundImageFix"/>
<feBlend mode="normal" in="SourceGraphic" in2="BackgroundImageFix" result="shape"/>
<feColorMatrix in="SourceAlpha" type="matrix" values="0 0 0 0 0 0 0 0 0 0 0 0 0 0 0 0 0 0 127 0" result="hardAlpha"/>
<feOffset dy="4"/>
<feGaussianBlur stdDeviation="2"/>
<feComposite in2="hardAlpha" operator="arithmetic" k2="-1" k3="1"/>
<feColorMatrix type="matrix" values="0 0 0 0 0 0 0 0 0 0 0 0 0 0 0 0 0 0 0.25 0"/>
<feBlend mode="normal" in2="shape" result="effect1_innerShadow_14_244"/>
</filter>
</defs>
</svg>
